<svg width="28" height="28" viewBox="0 0 28 28" fill="none" xmlns="http://www.w3.org/2000/svg">
<path fill-rule="evenodd" clip-rule="evenodd" d="M3.5 8.3125C3.5 7.58763 4.08763 7 4.8125 7H23.1875C23.9124 7 24.5 7.58763 24.5 8.3125C24.5 9.03737 23.9124 9.625 23.1875 9.625H4.8125C4.08763 9.625 3.5 9.03737 3.5 8.3125ZM3.5 14C3.5 13.2751 4.08763 12.6875 4.8125 12.6875H23.1875C23.9124 12.6875 24.5 13.2751 24.5 14C24.5 14.7249 23.9124 15.3125 23.1875 15.3125H4.8125C4.08763 15.3125 3.5 14.7249 3.5 14ZM3.5 19.6875C3.5 18.9626 4.08763 18.375 4.8125 18.375H23.1875C23.9124 18.375 24.5 18.9626 24.5 19.6875C24.5 20.4124 23.9124 21 23.1875 21H4.8125C4.08763 21 3.5 20.4124 3.5 19.6875Z" fill="#100E0F"/>
</svg>
